# xmcd
#
# Track frame offsets: 
#        183
#        19970
#        39450
#        53900
#        80930
#        92958
#        106785
#        136945
#        158098
#        173830
#        189858
#
# Disc length: 2680 seconds
#
# Revision: 0
# Processed by: cddbd v1.4PL0 Copyright (c) Steve Scherf et al.
# Submitted via: ExactAudioCopy v0.90b2
#
DISCID=890a760b
DTITLE=The Elmores - Alone In The Country
DYEAR=1900
DGENRE=
TTITLE0=Looking For A Lover
TTITLE1=Brokenhearted Blues
TTITLE2=Three Times A Fool
TTITLE3=Alone In The Country
TTITLE4=Favourite Son
TTITLE5=Little Stevie's Shuffle
TTITLE6=Lowdown
TTITLE7=What Love Will Make You Do
TTITLE8=Take What's Yours
TTITLE9=Crazy Love
TTITLE10=Lie To Me Darling
EXTD=
EXTT0=
EXTT1=
EXTT2=
EXTT3=
EXTT4=
EXTT5=
EXTT6=
EXTT7=
EXTT8=
EXTT9=
EXTT10=
PLAYORDER=
